<svg id="_3528191" data-name="3528191" xmlns="http://www.w3.org/2000/svg" xmlns:xlink="http://www.w3.org/1999/xlink" width="15.515" height="15.464" viewBox="0 0 15.515 15.464">
  <defs>
    <linearGradient id="linear-gradient" x1="0.009" y1="0.5" x2="1.12" y2="0.5" gradientUnits="objectBoundingBox">
      <stop offset="0" stop-color="#fe646f"/>
      <stop offset="0.572" stop-color="#fb2b3a"/>
      <stop offset="1" stop-color="#c41926"/>
    </linearGradient>
    <linearGradient id="linear-gradient-2" x1="-1.088" y1="0.5" x2="0.954" y2="0.5" xlink:href="#linear-gradient"/>
    <linearGradient id="linear-gradient-3" x1="-0.025" y1="0.5" x2="0.332" y2="0.5" gradientUnits="objectBoundingBox">
      <stop offset="0" stop-color="#ffdcbd"/>
      <stop offset="0.003" stop-color="#ffdcbd"/>
      <stop offset="1" stop-color="#ffa9b1"/>
    </linearGradient>
    <linearGradient id="linear-gradient-4" x1="0.11" y1="0.5" x2="0.997" y2="0.5" gradientUnits="objectBoundingBox">
      <stop offset="0" stop-color="#ffc2b5"/>
      <stop offset="1" stop-color="#ff89a8"/>
    </linearGradient>
    <linearGradient id="linear-gradient-5" x1="-0.096" y1="0.5" x2="1.053" y2="0.5" gradientUnits="objectBoundingBox">
      <stop offset="0" stop-color="#ffe177"/>
      <stop offset="0.572" stop-color="#feb137"/>
      <stop offset="1" stop-color="#fe646f"/>
    </linearGradient>
    <linearGradient id="linear-gradient-6" x1="-0.477" y1="0.5" x2="0.968" y2="0.5" xlink:href="#linear-gradient-5"/>
    <linearGradient id="linear-gradient-7" y1="0.5" x2="1" y2="0.5" gradientUnits="objectBoundingBox">
      <stop offset="0" stop-color="#537983"/>
      <stop offset="1" stop-color="#384949"/>
    </linearGradient>
    <linearGradient id="linear-gradient-8" x1="-0.296" y1="0.5" x2="0.963" y2="0.5" xlink:href="#linear-gradient-5"/>
    <linearGradient id="linear-gradient-9" x1="-0.753" y1="0.5" x2="0.885" y2="0.5" gradientUnits="objectBoundingBox">
      <stop offset="0" stop-color="#537983"/>
      <stop offset="1" stop-color="#3e5959"/>
    </linearGradient>
    <linearGradient id="linear-gradient-10" x1="-4.084" y1="0.5" x2="0.1" y2="0.5" xlink:href="#linear-gradient-5"/>
    <linearGradient id="linear-gradient-11" x1="-2.031" y1="0.5" x2="0.189" y2="0.5" xlink:href="#linear-gradient-7"/>
    <linearGradient id="linear-gradient-12" x1="-0.041" y1="0.5" x2="1.043" y2="0.5" gradientUnits="objectBoundingBox">
      <stop offset="0" stop-color="#f9f3f1"/>
      <stop offset="0.572" stop-color="#efe2dd"/>
      <stop offset="1" stop-color="#cdbfba"/>
    </linearGradient>
    <linearGradient id="linear-gradient-13" x1="-0.293" y1="0.5" x2="0.792" y2="0.5" xlink:href="#linear-gradient-12"/>
  </defs>
  <path id="Path_151" data-name="Path 151" d="M340.96,6.079l1.216-1.216a1.927,1.927,0,0,0,0-2.725l-.743-.743a1.927,1.927,0,0,0-2.725,0l-1.216,1.216Z" transform="translate(-327.225 -0.831)" fill="url(#linear-gradient)"/>
  <path id="Path_152" data-name="Path 152" d="M404.949,2.15l-.743-.743a1.926,1.926,0,0,0-1.971-.465,1.918,1.918,0,0,1,.754.465l.743.743a1.927,1.927,0,0,1,0,2.725l-.607.607.609.609,1.216-1.216a1.927,1.927,0,0,0,0-2.725Z" transform="translate(-389.998 -0.843)" fill="url(#linear-gradient-2)"/>
  <g id="Group_116" data-name="Group 116" transform="translate(0 2.398)">
    <path id="Path_153" data-name="Path 153" d="M25.314,79.67l-7.958,7.958a1.527,1.527,0,0,0-.4.713l-.777,3.139a.657.657,0,0,0,.8.8L20.11,91.5a1.527,1.527,0,0,0,.713-.4l7.958-7.958Z" transform="translate(-15.665 -79.67)" fill="url(#linear-gradient-3)"/>
    <path id="Path_154" data-name="Path 154" d="M28,424.758l-.338.338a1.526,1.526,0,0,1-.713.4l-3.139.777a.651.651,0,0,1-.6-.153l2.522-.624a1.526,1.526,0,0,0,.713-.4l.946-.946Z" transform="translate(-22.504 -413.669)" fill="url(#linear-gradient-4)"/>
    <path id="Path_155" data-name="Path 155" d="M57.961,91.1l-.007.007a.113.113,0,0,1-.169-.011,1.665,1.665,0,0,0-.14-.159,1.638,1.638,0,0,0-.8-.442.367.367,0,0,1-.278-.278,1.647,1.647,0,0,0-1.245-1.245.367.367,0,0,1-.278-.278,1.638,1.638,0,0,0-.442-.8q-.048-.048-.1-.092a.112.112,0,0,1-.006-.165h0l7.958-7.958,3.468,3.468Z" transform="translate(-52.803 -79.674)" fill="url(#linear-gradient-5)"/>
    <path id="Path_156" data-name="Path 156" d="M150.315,79.67l-.793.793,2.449,2.449a.579.579,0,0,1,0,.819l-6.892,6.892a1.643,1.643,0,0,1,.428.309,1.661,1.661,0,0,1,.141.16.113.113,0,0,0,.168.011l.007-.007,7.958-7.958Z" transform="translate(-140.666 -79.67)" fill="url(#linear-gradient-6)"/>
    <path id="Path_157" data-name="Path 157" d="M10.519,494.669H.227a.227.227,0,1,1,0-.455H10.519a.227.227,0,1,1,0,.455Z" transform="translate(0 -481.603)" fill="url(#linear-gradient-7)"/>
    <path id="Path_158" data-name="Path 158" d="M86.935,112.532l-1.5-1.5-8.255,8.255a.366.366,0,0,0,.168.088,1.647,1.647,0,0,1,1.245,1.245.366.366,0,0,0,.088.168Z" transform="translate(-74.831 -110.077)" fill="url(#linear-gradient-8)"/>
    <path id="Path_159" data-name="Path 159" d="M17.051,451.917a1.25,1.25,0,0,0-.75-.36l-.123.5a.657.657,0,0,0,.8.8l.444-.11A1.251,1.251,0,0,0,17.051,451.917Z" transform="translate(-15.666 -440.244)" fill="url(#linear-gradient-9)"/>
    <path id="Path_160" data-name="Path 160" d="M322.473,111.824l1.5,1.5.006.006.793-.793-.721-.721-.78-.78Z" transform="translate(-312.663 -110.077)" fill="url(#linear-gradient-10)"/>
    <path id="Path_161" data-name="Path 161" d="M23.812,481.306l.444-.11a1.258,1.258,0,0,0-.049-.289l-.995.246h0A.65.65,0,0,0,23.812,481.306Z" transform="translate(-22.506 -468.701)" fill="url(#linear-gradient-11)"/>
  </g>
  <path id="Path_162" data-name="Path 162" d="M311.974,47.262l-3.313-3.313a.434.434,0,0,1,0-.613l.62-.62a.434.434,0,0,1,.613,0l3.313,3.313a.434.434,0,0,1,0,.613l-.62.62A.434.434,0,0,1,311.974,47.262Z" transform="translate(-299.148 -41.319)" fill="url(#linear-gradient-12)"/>
  <path id="Path_163" data-name="Path 163" d="M327.386,46.03l-3.313-3.313a.434.434,0,0,0-.613,0l-.3.3,3.011,3.011a.434.434,0,0,1,0,.613l-.318.318.3.3a.434.434,0,0,0,.613,0l.62-.62A.434.434,0,0,0,327.386,46.03Z" transform="translate(-313.327 -41.32)" fill="url(#linear-gradient-13)"/>
</svg>
