<?xml version="1.0" encoding="UTF-8"?>
<svg width="308px" height="320px" viewBox="0 0 308 320" version="1.1" xmlns="http://www.w3.org/2000/svg" xmlns:xlink="http://www.w3.org/1999/xlink">
    <!-- Generator: Sketch 63.1 (92452) - https://sketch.com -->
    <title>Illustration/No Team Tasks</title>
    <desc>Created with Sketch.</desc>
    <defs>
        <radialGradient cx="72.1629616%" cy="108.920308%" fx="72.1629616%" fy="108.920308%" r="64.1981908%" gradientTransform="translate(0.721630,1.089203),scale(0.997316,1.000000),rotate(1.237644),translate(-0.721630,-1.089203)" id="radialGradient-1">
            <stop stop-color="#E0BB95" offset="0%"></stop>
            <stop stop-color="#ECCBA8" offset="43.57%"></stop>
            <stop stop-color="#FADCBD" offset="100%"></stop>
        </radialGradient>
        <radialGradient cx="67.6461735%" cy="101.201801%" fx="67.6461735%" fy="101.201801%" r="56.132059%" gradientTransform="translate(0.676462,1.012018),scale(0.949408,1.000000),translate(-0.676462,-1.012018)" id="radialGradient-2">
            <stop stop-color="#6264A7" offset="1.37%"></stop>
            <stop stop-color="#8B8CC7" offset="86.45%"></stop>
        </radialGradient>
        <radialGradient cx="49.3767721%" cy="52.1861516%" fx="49.3767721%" fy="52.1861516%" r="39.5913521%" gradientTransform="translate(0.493768,0.521862),scale(1.000000,0.818385),translate(-0.493768,-0.521862)" id="radialGradient-3">
            <stop stop-color="#E0BB95" offset="4.65%"></stop>
            <stop stop-color="#FADCBD" offset="100%"></stop>
        </radialGradient>
        <radialGradient cx="99.8083212%" cy="63.4988282%" fx="99.8083212%" fy="63.4988282%" r="86.9596058%" gradientTransform="translate(0.998083,0.634988),scale(1.000000,0.319639),rotate(1.962749),translate(-0.998083,-0.634988)" id="radialGradient-4">
            <stop stop-color="#E0BB95" offset="0%"></stop>
            <stop stop-color="#FADCBD" offset="100%"></stop>
        </radialGradient>
        <radialGradient cx="52.4289282%" cy="15.0529635%" fx="52.4289282%" fy="15.0529635%" r="53.1055581%" gradientTransform="translate(0.524289,0.150530),scale(1.000000,0.886502),rotate(-178.217785),translate(-0.524289,-0.150530)" id="radialGradient-5">
            <stop stop-color="#9B643D" offset="0%"></stop>
            <stop stop-color="#BA8A63" offset="88.19%"></stop>
            <stop stop-color="#BF8F68" offset="99.97%"></stop>
        </radialGradient>
        <radialGradient cx="7.78813709%" cy="59.3564632%" fx="7.78813709%" fy="59.3564632%" r="75.8330365%" gradientTransform="translate(0.077881,0.593565),scale(1.000000,0.323256),rotate(5.716294),translate(-0.077881,-0.593565)" id="radialGradient-6">
            <stop stop-color="#9B643D" offset="0.03%"></stop>
            <stop stop-color="#BA8A63" offset="88.22%"></stop>
            <stop stop-color="#BF8F68" offset="100%"></stop>
        </radialGradient>
        <linearGradient x1="17.3257688%" y1="101.49804%" x2="69.2113136%" y2="22.019512%" id="linearGradient-7">
            <stop stop-color="#E79A41" offset="0%"></stop>
            <stop stop-color="#F7B548" offset="100%"></stop>
        </linearGradient>
        <radialGradient cx="84.4969946%" cy="110.643548%" fx="84.4969946%" fy="110.643548%" r="20.6250353%" gradientTransform="translate(0.844970,1.106435),scale(0.999607,1.000000),translate(-0.844970,-1.106435)" id="radialGradient-8">
            <stop stop-color="#8B8CC4" offset="0.06%"></stop>
            <stop stop-color="#9595C9" offset="10.7%"></stop>
            <stop stop-color="#AEAED6" offset="44.6%"></stop>
            <stop stop-color="#BEBEDE" offset="75.28%"></stop>
            <stop stop-color="#C3C3E1" offset="99.7%"></stop>
        </radialGradient>
        <linearGradient x1="43.105005%" y1="138.262313%" x2="51.897415%" y2="24.3432662%" id="linearGradient-9">
            <stop stop-color="#8B8CC4" offset="0.06%"></stop>
            <stop stop-color="#9595C9" offset="8.38%"></stop>
            <stop stop-color="#AEAED6" offset="34.86%"></stop>
            <stop stop-color="#BEBEDE" offset="58.83%"></stop>
            <stop stop-color="#C3C3E1" offset="77.91%"></stop>
        </linearGradient>
    </defs>
    <g id="Illustration/No-Team-Tasks" stroke="none" stroke-width="1" fill="none" fill-rule="evenodd">
        <g id="Illustration">
            <circle id="Oval" fill="#F3F2F1" fill-rule="nonzero" cx="177.6692" cy="195.284" r="123.119"></circle>
            <path d="M209.6612,206.775 C209.5374,211.335 213.1336,215.132 217.6936,215.256 C218.0032,215.2644 222.0042,215.3354 222.3058,215.3104 C226.4474,214.967 226.059,211.474 226.1746,207.2234 C226.289,203.0126 226.9264,199.5322 222.8668,198.914 C222.53,198.8628 218.4914,198.7518 218.1422,198.7424 C213.582,198.6186 209.785,202.215 209.6612,206.775 Z" id="Path" fill="url(#radialGradient-1)" fill-rule="nonzero"></path>
            <path d="M181.0948,289.007 C181.0948,299.9338 187.937,309.757 198.826,316.5544 C231.3372,310.9206 259.4618,292.549 277.8914,266.7506 C268.0536,257.9188 252.4862,252.203 234.9608,251.859 C203.836,251.2478 181.0948,268.4908 181.0948,289.007 Z" id="Path" fill="#8B8CC4" fill-rule="nonzero"></path>
            <g id="Group" transform="translate(206.000000, 150.000000)" fill="#E38064" fill-rule="nonzero">
                <circle id="Oval" cx="27.5014" cy="9.5778" r="8.3958"></circle>
                <circle id="Oval" cx="14.4414" cy="16.0352" r="8.3958"></circle>
                <circle id="Oval" cx="42.1214" cy="10.6144" r="8.3958"></circle>
                <circle id="Oval" cx="54.088" cy="17.5154" r="8.3958"></circle>
                <circle id="Oval" cx="8.9808" cy="26.608" r="8.3958"></circle>
                <circle id="Oval" cx="59.738" cy="27.7046" r="8.3958"></circle>
                <g transform="translate(2.000000, 28.000000)" id="Oval">
                    <circle cx="10.2988" cy="8.5392" r="8.3958"></circle>
                    <circle cx="53.9942" cy="9.4832" r="8.3958"></circle>
                </g>
            </g>
            <path d="M223.6218,257.5704 C217.3866,253.0758 203.2136,255.2042 190.7912,266.7394 C180.6008,276.202 172.4704,290.9956 163.0368,317.5078 C167.8386,318.0766 172.7146,318.4034 177.6692,318.4034 C186.8066,318.4034 195.7,317.3776 204.2698,315.4894 C210.4902,305.3186 215.992,295.3824 220.6902,288.7474 C225.3904,283.4572 236.0126,266.5022 223.6218,257.5704 Z" id="Path" fill="url(#radialGradient-2)" fill-rule="nonzero"></path>
            <path d="M255.9834,212.4932 L224.8636,211.821 C219.115,211.6968 214.5556,206.936 214.6798,201.1876 L215.0296,184.9962 C215.3182,171.6348 226.3838,161.0372 239.7452,161.3258 L243.2964,161.4026 C256.6578,161.6912 267.2554,172.7568 266.9666,186.1182 L266.6168,202.3096 C266.4928,208.058 261.732,212.6174 255.9834,212.4932 Z" id="Path" fill="#E38064" fill-rule="nonzero"></path>
            <path d="M248.3568,243.738 L248.9888,214.0022 L236.0638,213.723 L223.139,213.4438 L222.4862,243.1792 C222.4862,252.8256 218.9112,253.1754 218.8308,253.2348 C218.7116,253.3228 223.2726,253.514 234.9666,253.7668 C246.6606,254.0196 251.9888,253.9558 251.9888,253.9558 C251.9888,253.9558 248.1346,254.0226 248.3568,243.738 Z" id="Path" fill="url(#radialGradient-3)" fill-rule="nonzero"></path>
            <path d="M235.5816,239.544 L235.5816,239.544 C223.4374,239.2816 213.8054,229.2242 214.0678,217.0802 L214.6124,191.8672 C214.8748,179.7232 224.9322,170.0912 237.0762,170.3534 L237.0762,170.3534 C249.2202,170.6158 258.8522,180.6732 258.59,192.8172 L258.0454,218.0302 C257.783,230.1742 247.7256,239.8062 235.5816,239.544 Z" id="Path" fill="#FADCBD" fill-rule="nonzero"></path>
            <ellipse id="Oval" fill="#605D5A" fill-rule="nonzero" transform="translate(241.770190, 201.879832) rotate(-88.447043) translate(-241.770190, -201.879832) " cx="241.77019" cy="201.879832" rx="3.59408241" ry="1.9469363"></ellipse>
            <path d="M217.1164,226.6582 L231.725,229.9752 L232.3602,220.1006 C232.3802,219.1902 231.9414,218.3308 231.1922,217.8134 L227.3574,215.1652 C226.5228,214.5888 226.3078,213.4482 226.8752,212.6076 L230.3744,207.423 C231.2086,206.187 231.672,204.7384 231.71,203.2478 L232.2306,182.4608 L219.5226,182.2824 L217.1164,226.6582 Z" id="Path" fill="url(#radialGradient-4)" fill-rule="nonzero"></path>
            <g id="Group" opacity="0.24" transform="translate(212.000000, 206.000000)" fill="#E3646A" fill-rule="nonzero">
                <circle id="Oval" cx="6.3372" cy="3.9308" r="1.3614"></circle>
                <circle id="Oval" cx="6.2496" cy="7.9794" r="1"></circle>
                <circle id="Oval" cx="11.1448" cy="4.2594" r="1.0836"></circle>
                <circle id="Oval" cx="3.7458" cy="6.7644" r="1"></circle>
                <circle id="Oval" cx="2.5092" cy="2.3354" r="1"></circle>
                <circle id="Oval" cx="15.3318" cy="3.8964" r="1"></circle>
                <circle id="Oval" cx="9.5474" cy="7.3846" r="1"></circle>
            </g>
            <ellipse id="Oval" fill="#605D5A" fill-rule="nonzero" transform="translate(223.575863, 201.486098) rotate(-88.447043) translate(-223.575863, -201.486098) " cx="223.575863" cy="201.486098" rx="3.59408241" ry="1.9469363"></ellipse>
            <path d="M268.4248,208.0848 C268.3516,212.646 264.5946,216.2842 260.0336,216.211 C259.724,216.206 255.7236,216.1042 255.4234,216.0662 C251.3006,215.5442 251.8392,212.0712 251.9076,207.8196 C251.9752,203.6078 251.4886,200.1032 255.5712,199.6608 C255.9098,199.6242 259.9496,199.6878 260.2988,199.6934 C264.8598,199.7668 268.498,203.5238 268.4248,208.0848 Z" id="Path" fill="#FADCBD" fill-rule="nonzero"></path>
            <path d="M239.9096,223.2654 C239.7204,224.511 239.0808,225.697 238.1488,226.6374 C237.2258,227.5954 235.9932,228.2592 234.6946,228.5994 C233.3878,228.916 232.0086,228.9088 230.7424,228.5208 C229.4824,228.1516 228.3106,227.4208 227.5744,226.3524 C227.3764,226.0648 227.449,225.6712 227.7366,225.4732 C227.8804,225.3738 228.051,225.3426 228.2104,225.3722 L228.259,225.3814 C229.35,225.5872 230.2996,225.6842 231.23,225.689 C232.1552,225.676 233.0452,225.5906 233.896,225.3724 C235.6282,224.9684 237.1182,224.1078 238.8658,222.698 L238.889,222.6792 C239.1604,222.4602 239.5578,222.503 239.7766,222.7742 C239.892,222.917 239.9346,223.097 239.9096,223.2654 Z" id="Path" fill="#E0BB95" fill-rule="nonzero"></path>
            <path d="M251.9376,166.175 L222.4082,165.537 L212.8894,179.3204 L214.3048,198.7088 L217.0728,184.6282 C218.0968,180.1664 222.1136,177.0374 226.6902,177.1362 L247.159,177.5784 C251.7358,177.6772 255.6138,180.977 256.444,185.479 L258.6006,199.6676 L260.853,180.3566 L251.9376,166.175 Z" id="Path" fill="#E38064" fill-rule="nonzero"></path>
            <circle id="Oval" fill="#E38064" fill-rule="nonzero" cx="247.9602" cy="178.9648" r="8.3958"></circle>
            <circle id="Oval" fill="#E38064" fill-rule="nonzero" cx="256.2438" cy="188.112" r="5.958"></circle>
            <path d="M177.5412,312.2442 C175.7622,314.3326 174.505,316.3588 173.6574,318.3016 C174.9926,318.3446 176.3236,318.4032 177.6692,318.4032 C185.4358,318.4032 193.0228,317.6508 200.3904,316.2752 C202.218,311.7186 203.3574,308.272 203.3574,308.272 L199.179,299.743 C198.6174,299.8286 181.5922,307.4886 177.5412,312.2442 Z" id="Path" fill="#8B8CC4" fill-rule="nonzero"></path>
            <g id="Group" opacity="0.24" transform="translate(236.000000, 208.000000)" fill="#E3646A" fill-rule="nonzero">
                <circle id="Oval" cx="11.2698" cy="2.556" r="1.3614"></circle>
                <circle id="Oval" cx="11.1824" cy="6.6046" r="1"></circle>
                <circle id="Oval" cx="6.4526" cy="2.6766" r="1.0836"></circle>
                <circle id="Oval" cx="13.7364" cy="5.4986" r="1"></circle>
                <circle id="Oval" cx="15.1632" cy="1.1272" r="1"></circle>
                <circle id="Oval" cx="2.2852" cy="2.1332" r="1"></circle>
                <circle id="Oval" cx="7.9136" cy="5.8678" r="1"></circle>
            </g>
            <path d="M194.9484,273.9858 C198.6506,290.3822 200.528,304.6254 201.427,316.09 C229.5476,310.5908 254.233,295.5266 271.968,274.4138 C272.1316,272.5086 272.305,270.5646 272.496573,268.553 C272.6312,267.1364 193.9886,269.7358 194.9484,273.9858 Z" id="Path" fill="#C8C6C4" fill-rule="nonzero"></path>
            <path d="M188.1052,257.9884 C191.1424,245.5636 182.745,244.5976 178.4414,243.0786 C173.7476,241.422 176.026,236.4054 175.6252,233.1574 C174.8282,226.6984 170.2016,221.5422 164.0838,221.5422 C161.2902,221.5422 156.4642,222.863 154.42,224.5794 C134.3884,241.3992 114.6354,232.0782 114.6354,232.0782 C112.3798,230.3206 109.4818,229.2622 106.3188,229.2622 C99.1298,229.2622 92.6652,236.9532 93.2196,245.0836 C94.2304,259.9086 130.7422,276.5572 153.5918,276.487817 C176.4414,276.418 187.0692,262.2268 188.1052,257.9884 Z" id="Path" fill="#3A312E" fill-rule="nonzero"></path>
            <path d="M83.8296,208.6994 C84.7194,228.4764 100.39,243.7892 118.831,242.9018 C137.272,242.0144 151.5002,225.2626 150.6106,205.4858 C149.721,185.709 144.8502,173.9586 115.8038,174.034828 C97.3414,174.0838 82.9398,188.9224 83.8296,208.6994 Z" id="Path" fill="#3A312E" fill-rule="nonzero"></path>
            <path d="M108.3626,224.5212 L102.3006,224.7126 C98.5232,224.832 95.3642,221.8664 95.2448,218.089 L95.2358,217.8028 C95.1164,214.0254 98.082,210.8664 101.8594,210.747 L107.9214,210.5556 C109.8698,210.494 111.4992,212.0236 111.5608,213.9722 L111.779,220.882 C111.8406,222.8304 110.311,224.4598 108.3626,224.5212 Z" id="Path" fill="#BF8F68" fill-rule="nonzero"></path>
            <path d="M139.0916,259.1562 C129.5554,253.6784 124.5936,290.9706 134.2884,310.5188 C147.5056,315.4974 161.8002,318.2674 176.7322,318.3792 C170.3262,291.1492 156.7886,269.3068 139.0916,259.1562 Z" id="Path" fill="#C3C3E1" fill-rule="nonzero"></path>
            <path d="M108.3046,242.8302 C107.9916,236.8816 107.6238,227.6074 107.6238,227.6074 L126.739,228.3356 C126.739,228.3356 126.3524,240.773 126.1744,246.4938 C125.9964,252.2146 131.3464,255.3586 131.3464,255.3586 C131.3464,255.3586 127.8034,262.0182 116.4396,261.4202 C108.0506,260.9788 101.3376,254.1682 101.3376,254.1682 C101.3376,254.1682 108.777,251.808 108.3046,242.8302 Z" id="Path" fill="url(#radialGradient-5)" fill-rule="nonzero"></path>
            <path d="M100.1196,210.6362 C100.6806,228.3966 112.5642,242.4334 126.6626,241.9882 C140.761,241.543 151.7352,226.7842 151.1742,209.0238 C150.6132,191.2634 138.7814,178.8636 124.683,179.309 C110.5846,179.7542 99.5586,192.8758 100.1196,210.6362 Z" id="Path" fill="#BF8F68" fill-rule="nonzero"></path>
            <path d="M129.6252,194.4104 L129.9586,203.925 C130.2628,208.7958 132.7306,212.1842 134.6072,214.085 C135.657,215.1484 136.1112,217.6814 134.798,219.1656 C134.0842,219.9724 130.9982,221.7158 130.9432,223.9676 L131.0142,232.7646 L142.0606,232.2344 L140.4294,194.2954 L129.6252,194.4104 Z" id="Path" fill="url(#radialGradient-6)" fill-rule="nonzero"></path>
            <g id="Group" transform="translate(118.000000, 204.000000)" fill="#3A312E" fill-rule="nonzero">
                <ellipse id="Oval" transform="translate(2.692974, 6.338431) rotate(-2.665264) translate(-2.692974, -6.338431) " cx="2.69297408" cy="6.338431" rx="2.20615969" ry="3.70913223"></ellipse>
                <ellipse id="Oval" transform="translate(22.623884, 5.730323) rotate(-0.956846) translate(-22.623884, -5.730323) " cx="22.6238839" cy="5.73032318" rx="2.20628703" ry="3.70934633"></ellipse>
            </g>
            <g id="XMLID_1_" transform="translate(100.000000, 174.000000)" fill="#3A312E" fill-rule="nonzero">
                <path d="M1.709,24.554 L1.888,30.2194 C6.5974,27.9606 16.1686,26.1746 27.269,25.824 L29.3936,16.8876 L32.3116,25.7636 C42.1726,25.8478 50.3244,27.14 54.079,29.0986 L57.9986,28.9748 L57.803,22.7824 C57.4118,10.3976 45.9274,0.6712 32.1262,1.107 L25.9668,1.3016 C12.1658,1.7374 1.318,12.1692 1.709,24.554 Z" id="Path"></path>
            </g>
            <path d="M107.2826,175.6734 L106.5042,200.7136 C106.3034,207.173 105.3594,213.2856 100.7494,217.8148 C100.1678,218.3862 99.673,218.9004 99.3298,219.3058 L100.3876,185.2824 C100.4312,183.8788 101.0622,182.5578 102.1264,181.6418 L107.2826,175.6734 Z" id="Path" fill="#3A312E" fill-rule="nonzero"></path>
            <path d="M118.275,226.2932 C118.318,225.9392 118.6844,225.7304 119.0126,225.87 C120.6994,226.5874 125.5862,228.509 129.66,228.5682 C131.7154,228.5982 128.2472,233.6488 123.012,232.3398 C118.9652,231.3282 118.108,227.6698 118.275,226.2932 Z" id="Path" fill="#723F45" fill-rule="nonzero"></path>
            <path d="M119.4436,227.3022 C119.1472,226.7156 119.33,225.9016 119.6582,226.0412 C121.345,226.7586 125.5432,228.2406 129.6602,228.5682 C131.403,228.707 130.0948,231.335 124.7222,230 C121.3074,229.1516 119.7398,227.8886 119.4436,227.3022 Z" id="Path" fill="#FFFFFF" fill-rule="nonzero"></path>
            <path d="M195.854,295.7314 C195.7586,292.9878 202.0194,288.4598 203.6188,287.9666 C205.5662,287.366 213.8392,288.8322 213.7346,290.9266 C213.6938,291.7434 205.8254,291.7216 205.8254,291.7216 L204.0498,293.793 L211.2212,295.4296 C211.2212,295.4296 214.169,299.3856 213.7164,300.2046 C211.645,303.9528 210.691,306.4606 208.603,307.2632 C207.7178,307.6036 204.833,306.8444 204.833,306.8444 L202.4244,308.2058 L202.6512,310.5154 C202.6512,310.5154 198.2558,308.8316 198.026,307.682 C197.6564,305.8334 196.0364,300.98 195.854,295.7314 Z" id="Path" fill="#FADCBD" fill-rule="nonzero"></path>
            <path d="M222.804,242.5858 C222.804,242.5858 227.7296,243.9118 234.9996,243.9118 C242.2696,243.9118 248.4512,242.618 248.4512,242.618 C249.4666,242.6364 250.043,243.1646 250.26,244.1684 C250.26,244.1684 250.105,253.3674 255.4796,254.9178 C257.334,255.4528 214.5448,254.2512 215.3242,254.0392 C221.2158,252.4372 220.6388,244.0448 220.6388,244.0448 C220.9898,243.15 221.8524,242.5686 222.804,242.5858 Z" id="Path" fill="#8B8CC4" fill-rule="nonzero"></path>
            <circle id="Oval" cx="177.6692" cy="195.5578" r="123.119"></circle>
            <g id="Group" fill-rule="nonzero">
                <g transform="translate(96.000000, 0.000000)" id="Path">
                    <path d="M93.2726,168.5882 L2.8016,125.795 C0.5058,124.709 -0.2226,121.8892 1.1748,119.4964 L68.347,4.4814 C69.7444,2.0888 72.7384,1.0294 75.0342,2.1154 L165.505,44.9086 C167.8008,45.9946 168.5292,48.8144 167.1318,51.2072 L99.9596,166.222 C98.5622,168.6148 95.5684,169.674 93.2726,168.5882 Z" fill="#C3C3E1"></path>
                    <polygon fill="#FFFFFF" points="92.6974 157.6412 13.1466 120.0134 75.6094 13.0622 155.1602 50.69"></polygon>
                    <path d="M131.6248,38.8178 L99.822,23.7748 L110.4642,5.5528 C111.8616,3.1602 114.8556,2.1008 117.1514,3.1868 L140.6404,14.2972 C142.9362,15.3832 143.6646,18.203 142.2672,20.5958 L131.6248,38.8178 Z" fill="#F7B548"></path>
                    <path d="M131.6248,38.8178 L99.822,23.7748 L110.4642,5.5528 C111.8616,3.1602 114.8556,2.1008 117.1514,3.1868 L140.6404,14.2972 C142.9362,15.3832 143.6646,18.203 142.2672,20.5958 L131.6248,38.8178 Z" fill="url(#linearGradient-7)"></path>
                    <path d="M126.9272,52.6328 L89.8422,35.0914 C87.5464,34.0054 86.818,31.1856 88.2154,28.7928 L97.5702,12.775 L142.9692,34.249 L133.6144,50.2668 C132.217,52.6594 129.223,53.7186 126.9272,52.6328 Z" fill="#F7B548"></path>
                </g>
                <g transform="translate(0.000000, 78.000000)" id="Path">
                    <path d="M114.255,20.9566 C85.5936,15.291 67.2832,7.8456 42.634,0.235 C27.3282,26.1002 2.6458,43.4528 0.374,88.0694 C21.7384,90.693 59.9314,104.6082 78.1016,103.309 C81.805,72.7402 94.6458,52.1358 114.255,20.9566 Z" fill="#FFE5B9"></path>
                    <path d="M49.0812,23.377 C47.5082,22.6412 45.9352,21.9056 44.3614,21.171 C43.5432,20.7876 42.5284,21.1222 42.121,21.9306 C41.3284,23.4728 40.5562,25.0288 39.8024,26.597 C39.4018,27.411 39.762,28.3888 40.5736,28.7716 C42.138,29.501 43.7032,30.2306 45.2682,30.961 C46.0836,31.3454 47.0732,30.9886 47.4634,30.1706 C48.2262,28.6078 49.0084,27.0582 49.8074,25.522 C50.2262,24.7176 49.9038,23.7644 49.0812,23.377 Z" fill="#FFD590"></path>
                    <path d="M38.4672,43.2426 C36.8674,42.5674 35.2674,41.892 33.6668,41.218 C32.8346,40.866 31.8332,41.239 31.457,42.0624 C30.7238,43.6336 30.0112,45.218 29.3178,46.8138 C28.9486,47.6426 29.3456,48.6058 30.1714,48.9574 C31.7624,49.6268 33.3544,50.2962 34.946,50.9664 C35.7754,51.3194 36.7508,50.9252 37.1094,50.093 C37.8122,48.5022 38.5348,46.924 39.2748,45.3586 C39.6624,44.5386 39.304,43.5986 38.4672,43.2426 Z" fill="#FFD590"></path>
                    <path d="M29.9832,63.3106 C28.3108,62.8428 26.6384,62.375 24.9656,61.9086 C24.0956,61.6646 23.1494,62.161 22.8802,63.0254 C22.3514,64.6768 21.8446,66.3382 21.3584,68.009 C21.0968,68.8778 21.6124,69.7832 22.4758,70.0276 C24.1386,70.4906 25.8024,70.9536 27.4658,71.4174 C28.3332,71.6628 29.2508,71.1486 29.5016,70.2778 C29.9978,68.611 30.5152,66.9542 31.0516,65.3078 C31.3326,64.4454 30.8582,63.558 29.9832,63.3106 Z" fill="#FFD590"></path>
                    <path d="M66.8234,78.6976 C57.6372,75.7412 48.4674,72.7914 39.3122,69.848 C38.5542,69.6052 37.7874,70.1422 37.6054,71.051 C37.6056,71.0506 37.6056,71.0506 37.6054,71.051 C37.428,71.9584 37.8936,72.8972 38.652,73.1392 C47.7854,76.0752 56.9352,79.018 66.0988,81.9646 C66.8572,82.2044 67.637,81.673 67.8302,80.7714 C67.8308,80.7722 67.8308,80.7722 67.8302,80.7714 C68.0346,79.8686 67.5876,78.9436 66.8234,78.6976 Z" fill="#FFD590"></path>
                    <path d="M74.8056,57.5384 C65.4586,54.7044 56.1238,51.8774 46.805,49.0578 C46.04,48.8222 45.2156,49.352 44.989,50.2396 L44.989,50.2396 C44.7518,51.125 45.2046,52.0362 45.9738,52.269 C55.2714,55.08 64.5836,57.897 73.9112,60.7208 C74.678,60.9502 75.5096,60.4304 75.752,59.5506 C75.7522,59.5502 75.7522,59.5502 75.752,59.5506 C75.9956,58.6718 75.58,57.7766 74.8056,57.5384 Z" fill="#FFD590"></path>
                    <path d="M84.5508,39.2948 C75.294,35.8218 66.0522,32.3582 56.8238,28.9048 C56.0626,28.621 55.1578,29.0628 54.8128,29.9 C54.813,29.8996 54.813,29.8996 54.8128,29.9 C54.4666,30.732 54.8178,31.6514 55.5748,31.9356 C64.7856,35.3792 74.0064,38.8296 83.2434,42.2892 C84.0056,42.5752 84.9142,42.1334 85.2784,41.3086 C85.2776,41.3082 85.2776,41.3082 85.2784,41.3086 C85.6414,40.4826 85.3162,39.586 84.5508,39.2948 Z" fill="#FFD590"></path>
                </g>
                <path d="M140.66,16.493 C138.4994,17.9334 129.3608,47.9568 91.9966,56.9778 C67.1968,62.9652 52.9596,90.1792 52.9596,90.1792 L120.7692,143.8652 C121.1156,144.1394 121.62,144.0384 121.8218,143.6454 C124.2874,138.844 138.8534,112.532 165.4416,105.176 C196.4726,96.591 209.071,69.86 207.9774,69.049 C177.6464,46.5624 143.4142,14.6568 140.66,16.493 Z" id="Path" fill="#FFD590"></path>
                <path d="M57.502,83.0016 C54.5242,87.1982 52.9596,90.1792 52.9596,90.1792 L97.9016,125.7606 C102.6412,117.442 108.116,108.7178 114.255,98.9566 C91.6252,94.4834 75.441,88.8992 57.502,83.0016 Z" id="Path" fill="#F7B548"></path>
                <g transform="translate(42.940625, 166.104129) rotate(13.189219) translate(-42.940625, -166.104129) translate(35.447311, 155.399395)" fill="#FFD590" id="Layer1_2_FILL_4_">
                    <g>
                        <g>
                            <path d="M0.212333587,19.7395301 C0.905620526,14.7890187 4.02712106,7.75772098 5.67693472,5.11729121 C6.73648932,3.42187538 8.4901389,1.95318583 9.68757049,2.65006403 C11.8968136,-1.17966172 14.7252185,0.0650847848 14.4802941,1.35971536 L11.2703725,16.6614908 C11.2703725,16.6614908 10.5467325,19.2261311 8.36639217,19.5121616 C6.86794346,19.7089146 0.191614745,19.88854 0.212333587,19.7395301 Z" id="Path"></path>
                        </g>
                    </g>
                </g>
                <path d="M177.931,76.5016 C170.3838,70.618 156.8944,60.354 153.3604,57.6484 C152.841,57.2508 151.967,57.2262 151.4522,57.63 L151.3564,57.697 C150.6184,58.2758 150.2172,59.019 151.5368,60.0026 L176.1416,78.794 C176.641,79.1754 177.3296,79.189 177.8414,78.8242 C177.853,78.8158 177.8648,78.8076 177.8766,78.7992 C178.6608,78.2396 179.5058,77.7294 177.931,76.5016 Z" id="Path" fill="#F7B548"></path>
                <path d="M155.4588,88.0914 C148.2608,82.5386 135.8224,72.9736 131.5512,69.6894 C130.6102,68.966 129.9114,68.3802 128.2526,69.1024 C126.5938,69.8246 128.1644,70.9226 128.1644,70.9226 L151.9176,89.0636 C152.8618,89.7848 154.0984,90.0014 155.2322,89.6464 C156.0228,89.3986 155.9184,88.4458 155.4588,88.0914 Z" id="Path" fill="#F7B548"></path>
                <path d="M129.9324,99.9062 C122.206,93.945 108.3176,83.2502 104.7794,80.528 C104.6568,80.4336 103.6762,79.9378 102.6062,80.691 C101.4052,81.5364 101.9644,82.3076 101.9644,82.3076 L127.6806,101.8024 C127.6806,101.8024 128.9108,102.6668 130.0472,101.6938 C131.0296,100.8524 130.3132,100.1998 129.9324,99.9062 Z" id="Path" fill="#F7B548"></path>
                <path d="M134.8992,50.2788 C134.8992,50.2788 141.2716,46.0374 142.5628,44.06 C142.6882,43.868 149.254,49.1848 149.1408,49.356 C148.2466,50.709 144.1082,53.8764 141.8852,55.4634 C141.3344,55.8566 134.8992,50.2788 134.8992,50.2788 Z" id="Path" fill="#F7B548"></path>
                <path d="M120.0742,57.7524 C119.9638,57.694 119.851,57.6892 119.731,57.7238 C119.0822,57.9108 116.1468,58.5206 110.6526,60.1546 C110.4424,60.217 110.2176,60.354 110.5306,60.6322 C111.6972,61.6692 115.827,64.8088 116.7756,65.5044 C116.8982,65.5942 117.0454,65.6224 117.192,65.5822 C118.7922,65.1442 124.2268,63.8182 126.1726,63.0854 C126.5358,62.9486 126.6044,62.47 126.2952,62.2354 C124.844,61.1348 121.0108,58.2484 120.0742,57.7524 Z" id="Path" fill="#F7B548"></path>
                <path d="M93.984,67.9018 C92.3426,68.687 87.7632,72.2504 86.0768,73.7308 C85.902,73.8842 85.724,74.3082 85.9438,74.535 C86.97,75.5928 90.3544,78.301 91.6944,78.9786 C91.9704,79.1182 92.1596,79.1716 92.2236,79.1068 C92.3216,79.0078 92.4222,78.909 92.5246,78.8106 C95.2784,76.1702 99.5552,73.837 100.7208,73.1546 C100.8892,73.056 100.941,72.7504 100.6918,72.5114 C99.6288,71.492 96.3318,69.098 94.9748,68.093 C94.7932,67.9584 94.2708,67.7646 93.984,67.9018 Z" id="Path" fill="#F7B548"></path>
            </g>
            <path d="M194.43,296.5772 C194.3346,293.8336 200.5954,289.3056 202.1948,288.8124 C204.1422,288.2118 212.4152,289.678 212.3106,291.7724 C212.2698,292.5892 204.4014,292.5674 204.4014,292.5674 L202.6258,294.6388 L209.7972,296.2754 C209.7972,296.2754 212.7452,300.2314 212.2924,301.0504 C210.221,304.7986 209.267,307.3064 207.179,308.109 C206.2938,308.4492 203.409,307.69 203.409,307.69 L201.0004,309.0514 L200.6814,311.2074 C200.6814,311.2074 196.8318,309.677 196.602,308.5276 C196.2326,306.6792 194.6126,301.8258 194.43,296.5772 Z" id="Path" fill="#FADCBD" fill-rule="nonzero"></path>
            <g id="Group" transform="translate(22.000000, 162.000000)" fill-rule="nonzero">
                <g transform="translate(22.357602, 12.132526) rotate(13.189219) translate(-22.357602, -12.132526) translate(13.793814, 2.498265)" fill="#BF8F68" id="Layer1_2_FILL_1_">
                    <g>
                        <g>
                            <path d="M1.57702146,15.2476095 C0.360107263,8.73699008 9.06284219,7.48196702 9.06284219,7.48196702 C9.06284219,7.48196702 12.7544769,2.11504141 13.5344238,1.35414889 C14.4511773,0.459447198 16.5914819,0.380660353 15.7708569,2.66290972 C15.0776183,4.59083237 13.5474836,8.28310934 12.5176882,10.981987 C8.64064747,21.1416362 1.90158901,16.9843456 1.57702146,15.2476095 Z" id="Path"></path>
                        </g>
                    </g>
                </g>
                <path d="M9.1268,21.0738 L16.5028,23.9422 C16.5028,23.9422 12.0116,41.7672 17.8442,58.5972 C23.0916,73.7382 -0.071,96.2572 1.4792,54.518 C2.0758,38.4616 7.7258,23.3228 9.1268,21.0738 Z" id="Path" fill="#BF8F68"></path>
                <path d="M15.164,45.6686 C15.9322,49.7372 16.7362,53.9336 18.3188,58.454 C23.6142,73.5782 46.1646,97.837 75.255,93.429 C77.4932,93.0898 105.1218,145.435 102.2158,144.3972 C99.0688,143.2732 91.8376,139.6232 76.2704,137.9628 C50.136,135.1752 2.0088,114.7112 1.264,54.9272 C1.214,50.9106 1.6842,49.1632 2.5208,43.4264 C2.5624,43.1406 6.1666,43.2829066 8.8544,43.8422 C11.5422,44.4014 15.0684,45.1628 15.164,45.6686 Z" id="Path" fill="url(#radialGradient-8)"></path>
                <path d="M109.316,93.4122 C109.0042,93.9562 105.2936,99.9914 94.4396,99.4202 C86.5818,99.0066 80.1954,93.0058 79.418,92.2476 C69.9782,94.8702 62.4108,100.3596 57.5786,107.672 C75.026,130.643 100.3512,147.2856 129.5336,153.5964 C131.6734,143.879 131.6398,135.9242 131.647029,129.2124 C131.6636,113.565 124.5572,98.995 109.316,93.4122 Z" id="Path" fill="url(#linearGradient-9)"></path>
                <path d="M8.5374,22.4744 L15.4552,25.0966 C15.4552,25.0966 20.3314,22.1284 26.4242,13.1212 C26.7202,12.6836 25.3912,15.4072 25.723,14.927 C20.7086,13.6662 16.7102,12.2756 11.7904,11.034 C11.6922,11.2442 8.5374,22.4744 8.5374,22.4744 Z" id="Path" fill="#BF8F68"></path>
            </g>
        </g>
    </g>
</svg>